# Blender v2.81 (sub 16) OBJ File: ''
# www.blender.org
v 1.000000 1.000000 1.000000
v -1.000000 1.000000 -1.000000
v 1.000000 1.000000 -1.000000
v -1.000000 -1.000000 1.000000
v 1.000000 -1.000000 1.000000
v -1.000000 -1.000000 -1.000000
v -1.000000 1.000000 1.000000
v 1.000000 -1.000000 -1.000000
vt 0.250158 0.666363
vt 0.499771 1.000000
vt 0.499771 0.666363
vt 0.000000 0.333736
vt 0.250158 0.333736
vt 0.750000 0.333736
vt 1.000000 0.666363
vt 1.000000 0.333736
vt 0.250158 0.001266
vt 0.499771 0.333736
vt 0.499771 0.001266
vt 0.750000 0.666363
vt 0.250158 1.000000
vt 0.000000 0.666363
vn 0.0000 -1.0000 -0.0000
vn 0.0000 0.0000 -1.0000
vn 1.0000 -0.0000 0.0000
vn 0.0000 1.0000 0.0000
vn -1.0000 -0.0000 0.0000
vn 0.0000 -0.0000 1.0000
s 1
f 1/1/1 2/2/1 3/3/1
f 4/4/2 1/1/2 5/5/2
f 6/6/3 7/7/3 4/8/3
f 4/9/4 8/10/4 6/11/4
f 5/5/5 3/3/5 8/10/5
f 8/10/6 2/12/6 6/6/6
f 1/1/1 7/13/1 2/2/1
f 4/4/2 7/14/2 1/1/2
f 6/6/3 2/12/3 7/7/3
f 4/9/4 5/5/4 8/10/4
f 5/5/5 1/1/5 3/3/5
f 8/10/6 3/3/6 2/12/6
